<svg width="220" height="53" viewBox="0 0 220 53" fill="none" xmlns="http://www.w3.org/2000/svg">
<g clip-path="url(#clip0)">
<path d="M74.5222 9.46826V12.9746H69.6205V44.5318H66.1141V12.9746H61.2124V9.46826H74.5222ZM90.4081 12.9746H81.2845V23.4937H88.6192V27H81.2845V41.0254H90.4081V44.5318H77.7781V23.4937H81.2845L77.7781 12.9746V9.46826H90.4081V12.9746ZM104.147 36.8035H107.654V40.5603C107.654 41.5621 107.344 42.4327 106.723 43.1722C106.103 43.9116 105.304 44.3648 104.326 44.5318H97.0273C96.0493 44.3648 95.2503 43.9116 94.6301 43.1722C93.9861 42.4327 93.664 41.5621 93.664 40.5603V13.4397C93.664 12.4379 93.9861 11.5673 94.6301 10.8279C95.2503 10.0884 96.0493 9.63523 97.0273 9.46826H104.326C105.304 9.63523 106.103 10.0884 106.723 10.8279C107.344 11.5673 107.654 12.4379 107.654 13.4397V17.1965H104.147V13.4397C104.147 13.1058 103.992 12.9388 103.682 12.9388H97.6713C97.3374 12.9388 97.1704 13.1058 97.1704 13.4397V40.5603C97.1704 40.8942 97.3374 41.0612 97.6713 41.0612H103.682C103.992 41.0612 104.147 40.8942 104.147 40.5603V36.8035ZM121.357 9.46826H124.863V44.5318H121.357V27H114.416V44.5318H110.91V23.4937H114.416L110.91 12.9746V9.46826H114.416V23.4937H121.357V9.46826ZM151.841 9.46826L147.476 44.5318H142.646L139.998 29.2183L137.35 44.5318H132.556L128.119 9.46826H131.697L134.953 37.5191L138.638 18.1268H141.751L145.079 37.5191L148.263 9.46826H151.841ZM157.995 9.46826H165.365C166.319 9.63523 167.119 10.0884 167.763 10.8279C168.383 11.5673 168.693 12.4379 168.693 13.4397V40.5603C168.693 41.5621 168.383 42.4327 167.763 43.1722C167.119 43.9116 166.319 44.3648 165.365 44.5318H157.995C157.017 44.3648 156.218 43.9116 155.598 43.1722C154.954 42.4327 154.632 41.5621 154.632 40.5603V13.4397C154.632 12.4379 154.954 11.5673 155.598 10.8279C156.218 10.0884 157.017 9.63523 157.995 9.46826ZM165.186 40.5603V13.4397C165.186 13.1058 165.043 12.9388 164.757 12.9388H158.639C158.305 12.9388 158.138 13.1058 158.138 13.4397V40.5603C158.138 40.8942 158.305 41.0612 158.639 41.0612H164.757C165.043 41.0612 165.186 40.8942 165.186 40.5603ZM171.949 44.5318V23.4937H175.455V44.5318H171.949ZM171.949 9.46826H182.074C183.148 9.46826 184.078 9.86183 184.865 10.649C185.652 11.4361 186.046 12.3783 186.046 13.4755V22.9928C186.046 24.09 185.652 25.0322 184.865 25.8193C184.078 26.6065 183.148 27 182.074 27H180.822L186.046 44.5318H182.289L176.206 23.4937H182.074C182.384 23.4937 182.539 23.3267 182.539 22.9928V13.4755C182.539 13.1416 182.384 12.9746 182.074 12.9746H175.455V23.4937L171.949 12.9746V9.46826ZM189.302 9.46826H199.248C200.369 9.46826 201.323 9.87376 202.111 10.6848C202.874 11.4719 203.255 12.4141 203.255 13.5113V40.5603C203.255 41.6337 202.874 42.5639 202.111 43.3511C201.323 44.1382 200.369 44.5318 199.248 44.5318H189.302V23.4937H192.808L189.302 12.9746V9.46826ZM199.749 40.5603V13.5113C199.749 13.1774 199.582 13.0104 199.248 13.0104H192.808V41.0254H199.248C199.582 41.0254 199.749 40.8704 199.749 40.5603ZM220 17.1965H216.494V13.4397C216.494 13.1058 216.327 12.9388 215.993 12.9388H210.519C210.185 12.9388 210.018 13.1058 210.018 13.4397V22.957C210.018 23.1717 210.125 23.3148 210.34 23.3863H215.993C217.138 23.3863 218.092 23.7799 218.855 24.567C219.618 25.3542 220 26.2964 220 27.3936V40.5603C220 41.5621 219.678 42.4327 219.034 43.1722C218.414 43.9116 217.615 44.3648 216.637 44.5318H209.875C208.92 44.3648 208.121 43.9116 207.477 43.1722C206.833 42.4327 206.511 41.5621 206.511 40.5603V36.8035H210.018V40.5603C210.018 40.8942 210.185 41.0612 210.519 41.0612H215.993C216.327 41.0612 216.494 40.8942 216.494 40.5603V27.3936C216.494 27.1551 216.398 27.0119 216.207 26.9642H210.519C209.421 26.9642 208.479 26.5707 207.692 25.7835C206.905 24.9964 206.511 24.0542 206.511 22.957V13.4397C206.511 12.4379 206.833 11.5673 207.477 10.8279C208.121 10.0884 208.92 9.63523 209.875 9.46826H216.637C217.615 9.63523 218.414 10.0884 219.034 10.8279C219.678 11.5673 220 12.4379 220 13.4397V17.1965Z" fill="black"/>
<path d="M34.3403 30.101L37.4413 27L34.3403 23.8991L35.8963 22.3541L38.9972 25.455L40.5422 27L38.9972 28.545L35.8963 31.6459L34.3403 30.101ZM12.3161 22.3541L9.21513 25.455L7.67015 27L9.21513 28.545L12.3161 31.6459L13.872 30.101L10.7711 27L13.872 23.8991L12.3161 22.3541ZM48.2123 13.8512V40.1488L24.1062 53.2977L0 40.1488V13.8512L24.1062 0.702393L48.2123 13.8512ZM46.0209 15.1551L24.1062 3.20067L2.19147 15.1551V38.8449L24.1062 50.7994L46.0209 38.8449V15.1551ZM20.6984 36.259L29.4643 18.7272L27.5139 17.7411L18.748 35.2728L20.6984 36.259Z" fill="url(#paint0_linear)"/>
</g>
<defs>
<linearGradient id="paint0_linear" x1="-0.205324" y1="1.62855" x2="43.4899" y2="22.004" gradientUnits="userSpaceOnUse">
<stop stop-color="#0076DD"/>
<stop offset="1" stop-color="#00CDE9"/>
</linearGradient>
<clipPath id="clip0">
<rect width="220" height="53" fill="white"/>
</clipPath>
</defs>
</svg>
